<svg width="122" height="24" viewBox="0 0 122 24" fill="none" xmlns="http://www.w3.org/2000/svg">
<path d="M36.4696 13.0196C36.4696 13.351 36.2009 13.6196 35.8696 13.6196H31.8922C31.5608 13.6196 31.2922 13.8883 31.2922 14.2196V16.2743C31.2922 16.6056 31.5608 16.8743 31.8922 16.8743H36.8075C37.1389 16.8743 37.4075 17.1429 37.4075 17.4743V18.8067C37.4075 19.1381 37.1389 19.4067 36.8075 19.4067H28.6C28.2686 19.4067 28 19.1381 28 18.8067V6.35035C28 6.01898 28.2686 5.75035 28.6 5.75035H36.8263C37.1576 5.75035 37.4263 6.01898 37.4263 6.35035V7.69216C37.4263 8.02353 37.1576 8.29216 36.8263 8.29216H31.8922C31.5608 8.29216 31.2922 8.56079 31.2922 8.89216V10.5716C31.2922 10.903 31.5608 11.1716 31.8922 11.1716H35.8696C36.2009 11.1716 36.4696 11.4403 36.4696 11.7716V13.0196Z" fill="#1F1F1F"/>
<path d="M42.1904 11.0223C42.4114 11.4556 43.029 11.4597 43.2557 11.0294L44.02 9.57856C44.1238 9.38155 44.3282 9.25823 44.5509 9.25823H46.465C46.9194 9.25823 47.2089 9.74388 46.9927 10.1436L44.9525 13.9163C44.8564 14.0941 44.8562 14.3083 44.952 14.4863L47.1263 18.5221C47.3417 18.9219 47.0522 19.4067 46.5981 19.4067H44.662C44.4401 19.4067 44.2363 19.2842 44.1321 19.0882L43.2414 17.4116C43.0149 16.9852 42.4031 16.9874 42.1797 17.4155L41.3087 19.0843C41.2053 19.2825 41.0003 19.4067 40.7768 19.4067H38.8266C38.3721 19.4067 38.0827 18.9212 38.2987 18.5214L40.48 14.486C40.5761 14.3082 40.5763 14.094 40.4804 13.9161L38.447 10.1429C38.2316 9.74313 38.5211 9.25823 38.9752 9.25823H40.9231C41.1486 9.25823 41.3551 9.3847 41.4575 9.58561L42.1904 11.0223Z" fill="#1F1F1F"/>
<path d="M53.8026 16.5554C53.8026 16.2865 53.6619 16.0708 53.3806 15.9082C53.0992 15.7456 52.5646 15.5768 51.7767 15.4017C50.9888 15.2266 50.3385 14.9984 49.8258 14.717C49.313 14.4294 48.9222 14.0824 48.6534 13.6759C48.3845 13.2695 48.2501 12.8036 48.2501 12.2784C48.2501 11.3467 48.6346 10.5807 49.4037 9.98044C50.1728 9.37391 51.1795 9.07064 52.4239 9.07064C53.762 9.07064 54.8375 9.37391 55.6504 9.98044C56.2927 10.4597 56.6812 11.058 56.816 11.7754C56.8772 12.101 56.6011 12.3722 56.2697 12.3722H54.2995C53.9681 12.3722 53.7243 12.091 53.5985 11.7845C53.4257 11.3634 53.031 11.1529 52.4145 11.1529C52.0831 11.1529 51.8048 11.2467 51.5797 11.4342C51.3546 11.6156 51.2421 11.8438 51.2421 12.1189C51.2421 12.4003 51.3796 12.6286 51.6548 12.8036C51.9299 12.9787 52.3676 13.1225 52.9679 13.2351C53.5744 13.3476 54.1059 13.4821 54.5624 13.6384C56.0881 14.1636 56.8509 15.1047 56.8509 16.4616C56.8509 17.387 56.4382 18.1405 55.6129 18.722C54.7937 19.3035 53.7307 19.5943 52.4239 19.5943C51.5547 19.5943 50.7794 19.438 50.0978 19.1253C49.4162 18.8127 48.8847 18.3875 48.5033 17.8497C48.2513 17.4945 48.0826 17.127 47.9971 16.7472C47.9243 16.4239 48.1998 16.1521 48.5312 16.1521H50.3014C50.6266 16.1521 50.8715 16.422 50.9954 16.7227C51.0736 16.9125 51.1933 17.0662 51.3546 17.1838C51.6548 17.3964 52.0393 17.5027 52.5083 17.5027C52.9397 17.5027 53.2618 17.4152 53.4744 17.2401C53.6932 17.065 53.8026 16.8368 53.8026 16.5554Z" fill="#1F1F1F"/>
<path d="M63.2477 19.5943C61.6907 19.5943 60.4307 19.1316 59.4678 18.2061C58.5048 17.2745 58.0233 16.0645 58.0233 14.5763V14.3137C58.0233 13.2757 58.2141 12.3597 58.5955 11.5656C58.9832 10.7714 59.5459 10.1587 60.2838 9.7272C61.0216 9.2895 61.897 9.07064 62.91 9.07064C64.3357 9.07064 65.4612 9.5146 66.2866 10.4025C67.112 11.2842 67.5246 12.516 67.5246 14.098V14.7267C67.5246 15.0581 67.256 15.3267 66.9246 15.3267H61.9708C61.5927 15.3267 61.3014 15.6796 61.4721 16.0169C61.6008 16.2712 61.7706 16.4882 61.9814 16.6679C62.3629 16.9931 62.8568 17.1557 63.4634 17.1557C64.1849 17.1557 64.7925 16.9736 65.2864 16.6093C65.59 16.3854 66.0345 16.3726 66.2782 16.6606L66.949 17.4534C67.1274 17.6641 67.1425 17.9733 66.9519 18.1729C66.5903 18.5518 66.1309 18.8662 65.5737 19.1159C64.8547 19.4348 64.0793 19.5943 63.2477 19.5943ZM62.8912 11.5093C62.1547 11.5093 61.6558 11.8975 61.3946 12.6738C61.2781 13.0199 61.5671 13.3476 61.9323 13.3476H64.1856C64.3203 13.3476 64.4295 13.2385 64.4295 13.1038V13.1038C64.442 12.5973 64.3138 12.2065 64.0449 11.9314C63.776 11.65 63.3915 11.5093 62.8912 11.5093Z" fill="#1F1F1F"/>
<path d="M71.395 9.25823C71.572 9.25823 71.7196 9.39359 71.7348 9.56992V9.56992C71.7618 9.8806 72.1799 10.0114 72.423 9.81609C73.0414 9.31913 73.8035 9.07064 74.7092 9.07064C75.766 9.07064 76.5538 9.38642 77.0728 10.018C77.5981 10.6495 77.8701 11.5999 77.8888 12.8693V18.8067C77.8888 19.1381 77.6202 19.4067 77.2888 19.4067H75.3186C74.9872 19.4067 74.7186 19.1381 74.7186 18.8067V13.0006C74.7186 12.4879 74.6154 12.1127 74.4091 11.8751C74.2028 11.6312 73.8276 11.5093 73.2836 11.5093C72.727 11.5093 72.2994 11.7064 72.0006 12.1006C71.9335 12.1891 71.9048 12.2997 71.9048 12.4107V18.8067C71.9048 19.1381 71.6362 19.4067 71.3048 19.4067H69.344C69.0126 19.4067 68.744 19.1381 68.744 18.8067V9.85823C68.744 9.52686 69.0126 9.25823 69.344 9.25823H71.395Z" fill="#1F1F1F"/>
<path d="M79.2489 14.2574C79.2489 12.6504 79.5959 11.3842 80.29 10.4588C80.984 9.53336 81.9532 9.07064 83.1976 9.07064C83.5482 9.07064 83.8773 9.12395 84.185 9.23057C84.7095 9.41235 85.4861 9.08904 85.4861 8.53391V5.6C85.4861 5.26863 85.7548 5 86.0861 5H88.0564C88.3877 5 88.6564 5.26863 88.6564 5.6V18.8067C88.6564 19.1381 88.3877 19.4067 88.0564 19.4067H86.1082C85.9395 19.4067 85.7963 19.283 85.7718 19.1161V19.1161C85.7282 18.8185 85.3329 18.71 85.1028 18.9037C84.5563 19.3641 83.9149 19.5943 83.1788 19.5943C81.972 19.5943 81.0153 19.1316 80.3087 18.2061C79.6021 17.2807 79.2489 15.9645 79.2489 14.2574ZM82.4097 14.4544C82.4097 16.2552 82.9349 17.1557 83.9854 17.1557C84.6337 17.1557 85.1105 16.9038 85.4159 16.4002C85.4651 16.3191 85.4861 16.2245 85.4861 16.1297V12.546C85.4861 12.4563 85.4673 12.3668 85.4231 12.2888C85.1288 11.7691 84.6558 11.5093 84.0042 11.5093C83.0287 11.5093 82.5004 12.2971 82.4191 13.8729L82.4097 14.4544Z" fill="#1F1F1F"/>
<path d="M92.4081 16.3397C92.9083 16.3397 93.3242 16.4897 93.6556 16.7899C93.987 17.0837 94.1527 17.4621 94.1527 17.9248C94.1527 18.3875 93.987 18.7689 93.6556 19.069C93.3242 19.3629 92.9083 19.5099 92.4081 19.5099C91.9016 19.5099 91.4827 19.3598 91.1513 19.0597C90.8261 18.7595 90.6635 18.3812 90.6635 17.9248C90.6635 17.4683 90.8261 17.09 91.1513 16.7899C91.4827 16.4897 91.9016 16.3397 92.4081 16.3397Z" fill="#1F1F1F"/>
<path d="M98.9378 9.25823C99.1173 9.25823 99.2669 9.39549 99.2824 9.57428V9.57428C99.3095 9.88717 99.7267 10.0198 99.9719 9.82352C100.599 9.3216 101.36 9.07064 102.256 9.07064C103.092 9.07064 103.75 9.28693 104.232 9.71951C104.584 10.0347 105.214 10.094 105.582 9.79888C106.188 9.31339 106.94 9.07064 107.837 9.07064C109.894 9.07064 110.951 10.315 111.007 12.8036V18.8067C111.007 19.1381 110.739 19.4067 110.407 19.4067H108.437C108.106 19.4067 107.837 19.1381 107.837 18.8067V13.0006C107.837 12.4816 107.75 12.1033 107.575 11.8657C107.399 11.6281 107.081 11.5093 106.618 11.5093C106.037 11.5093 105.593 11.7497 105.287 12.2307C105.241 12.3032 105.224 12.3896 105.23 12.4754V12.4754V18.8067C105.23 19.1381 104.961 19.4067 104.63 19.4067H102.659C102.328 19.4067 102.059 19.1381 102.059 18.8067V13.0194C102.059 12.4879 101.975 12.1033 101.806 11.8657C101.637 11.6281 101.315 11.5093 100.84 11.5093C100.285 11.5093 99.8505 11.7423 99.5363 12.2083C99.4778 12.2951 99.452 12.3991 99.452 12.5038V18.8067C99.452 19.1381 99.1834 19.4067 98.852 19.4067H96.8912C96.5598 19.4067 96.2912 19.1381 96.2912 18.8067V9.85823C96.2912 9.52686 96.5598 9.25823 96.8912 9.25823H98.9378Z" fill="#1F1F1F"/>
<path d="M117.723 19.5943C116.166 19.5943 114.906 19.1316 113.943 18.2061C112.98 17.2745 112.499 16.0645 112.499 14.5763V14.3137C112.499 13.2757 112.689 12.3597 113.071 11.5656C113.459 10.7714 114.021 10.1587 114.759 9.7272C115.497 9.2895 116.372 9.07064 117.385 9.07064C118.811 9.07064 119.937 9.5146 120.762 10.4025C121.587 11.2842 122 12.516 122 14.098V14.7267C122 15.0581 121.731 15.3267 121.4 15.3267H116.446C116.068 15.3267 115.777 15.6796 115.947 16.0169C116.076 16.2712 116.246 16.4882 116.457 16.6679C116.838 16.9931 117.332 17.1557 117.939 17.1557C118.66 17.1557 119.268 16.9736 119.762 16.6093C120.065 16.3854 120.51 16.3726 120.754 16.6606L121.424 17.4534C121.603 17.6641 121.618 17.9733 121.427 18.1729C121.066 18.5518 120.606 18.8662 120.049 19.1159C119.33 19.4348 118.555 19.5943 117.723 19.5943ZM117.367 11.5093C116.63 11.5093 116.131 11.8975 115.87 12.6738C115.753 13.0199 116.043 13.3476 116.408 13.3476H118.661C118.796 13.3476 118.905 13.2385 118.905 13.1038V13.1038C118.917 12.5973 118.789 12.2065 118.52 11.9314C118.251 11.65 117.867 11.5093 117.367 11.5093Z" fill="#1F1F1F"/>
<rect width="24" height="24" rx="2" fill="#775BF2"/>
<path d="M6.64079 13.8127C7.0944 12.6467 7.0944 11.353 6.64079 10.1871L4.83925 5.55623C4.66499 5.10809 5.10211 4.67916 5.5348 4.83124L5.60347 4.86077L18.8942 11.5052C18.9798 11.5481 19.0528 11.6124 19.1061 11.6918C19.1594 11.7713 19.1912 11.8632 19.1984 11.9585C19.2056 12.0539 19.188 12.1496 19.1472 12.2361C19.1065 12.3227 19.044 12.3972 18.9659 12.4524L18.8942 12.4953L5.60347 19.1397C5.17299 19.3546 4.70486 18.9596 4.81709 18.5144L4.83925 18.4435L6.64079 13.8127Z" fill="white"/>
</svg>
